<?xml version="1.0" encoding="utf-8"?>
<!-- Generator: Adobe Illustrator 17.0.0, SVG Export Plug-In . SVG Version: 6.00 Build 0)  -->
<!DOCTYPE svg PUBLIC "-//W3C//DTD SVG 1.1//EN" "http://www.w3.org/Graphics/SVG/1.1/DTD/svg11.dtd">
<svg version="1.1" id="Layer_1" xmlns="http://www.w3.org/2000/svg" xmlns:xlink="http://www.w3.org/1999/xlink" x="0px" y="0px"
	 width="122px" height="122px" viewBox="0 0 122 122" enable-background="new 0 0 122 122" xml:space="preserve">
<g>
	<circle fill="#6D9D78" cx="61" cy="61" r="61"/>
</g>
<g>
	<g>
		<g>
			
				<rect x="31.183" y="50.104" transform="matrix(-0.7071 0.7071 -0.7071 -0.7071 111.9637 62.6197)" fill="#37683A" width="23.661" height="8.788"/>
			
				<rect x="31.166" y="63.126" transform="matrix(0.7071 0.7071 -0.7071 0.7071 60.34 -10.6334)" fill="#37683A" width="23.679" height="8.788"/>
			<circle fill="#37683A" cx="49.514" cy="77.73" r="1.758"/>
			<circle fill="#37683A" cx="32.784" cy="61" r="1.758"/>
			<circle fill="#37683A" cx="53.242" cy="47.997" r="1.758"/>
			<circle fill="#37683A" cx="49.514" cy="44.269" r="1.758"/>
			<circle fill="#37683A" cx="53.23" cy="74.015" r="1.758"/>
			
				<rect x="49.614" y="73.245" transform="matrix(-0.7071 -0.7071 0.7071 -0.7071 34.0477 165.8479)" fill="#37683A" width="3.516" height="5.255"/>
			
				<rect x="48.57" y="44.304" transform="matrix(-0.7071 -0.7071 0.7071 -0.7071 54.6712 115.2555)" fill="#37683A" width="5.272" height="4.003"/>
		</g>
	</g>
	<g>
		<g>
			
				<rect x="67.157" y="50.104" transform="matrix(0.7071 0.7071 -0.7071 0.7071 61.6709 -39.8901)" fill="#37683A" width="23.661" height="8.788"/>
			
				<rect x="67.155" y="63.126" transform="matrix(-0.7071 0.7071 -0.7071 -0.7071 182.5958 59.4066)" fill="#37683A" width="23.679" height="8.788"/>
			<circle fill="#37683A" cx="72.486" cy="77.73" r="1.758"/>
			<circle fill="#37683A" cx="89.217" cy="61" r="1.758"/>
			<circle fill="#37683A" cx="68.758" cy="47.997" r="1.758"/>
			<circle fill="#37683A" cx="72.486" cy="44.269" r="1.758"/>
			<circle fill="#37683A" cx="68.77" cy="74.015" r="1.758"/>
			
				<rect x="68.87" y="73.245" transform="matrix(0.7071 -0.7071 0.7071 0.7071 -32.9635 72.164)" fill="#37683A" width="3.516" height="5.255"/>
			
				<rect x="68.158" y="44.304" transform="matrix(0.7071 -0.7071 0.7071 0.7071 -12.0074 63.6215)" fill="#37683A" width="5.272" height="4.003"/>
		</g>
	</g>
</g>
</svg>
