<?xml version="1.0" encoding="utf-8"?>
<!-- Generator: Adobe Illustrator 17.0.0, SVG Export Plug-In . SVG Version: 6.00 Build 0)  -->
<!DOCTYPE svg PUBLIC "-//W3C//DTD SVG 1.1//EN" "http://www.w3.org/Graphics/SVG/1.1/DTD/svg11.dtd">
<svg version="1.1" id="Layer_1" xmlns="http://www.w3.org/2000/svg" xmlns:xlink="http://www.w3.org/1999/xlink" x="0px" y="0px"
	 width="122px" height="122px" viewBox="0 0 122 122" enable-background="new 0 0 122 122" xml:space="preserve">
<g>
	<circle fill="#6D9D78" cx="61" cy="61" r="61"/>
</g>
<g>
	<g>
		<rect x="52.252" y="39.214" fill="#37683A" width="39.23" height="28.704"/>
		<rect x="53.971" y="37.667" fill="#37683A" width="35.839" height="31.629"/>
		<g>
			
				<rect x="76.424" y="62.743" transform="matrix(-0.7071 0.7071 -0.7071 -0.7071 181.9895 61.8385)" fill="#37683A" width="3.527" height="11.735"/>
			<rect x="82.2" y="58.983" fill="#37683A" width="1.719" height="13.748"/>
			<rect x="78.991" y="66.172" fill="#37683A" width="4.068" height="5.108"/>
		</g>
		<circle fill="#37683A" cx="89.763" cy="39.386" r="1.719"/>
		<circle fill="#37683A" cx="53.971" cy="39.386" r="1.719"/>
		<circle fill="#37683A" cx="89.763" cy="67.577" r="1.719"/>
		<circle fill="#37683A" cx="82.2" cy="72.732" r="1.719"/>
		<circle fill="#37683A" cx="53.971" cy="67.577" r="1.719"/>
	</g>
	<g>
		<rect x="33.367" y="49.958" fill="#6D9D78" width="35.025" height="25.628"/>
		<rect x="34.86" y="48.577" fill="#6D9D78" width="31.997" height="28.238"/>
		<g>
			
				<rect x="43.662" y="70.966" transform="matrix(0.7071 0.7071 -0.7071 0.7071 67.1341 -9.6671)" fill="#6D9D78" width="3.149" height="10.478"/>
			<rect x="40.12" y="67.609" fill="#6D9D78" width="1.535" height="12.275"/>
			<rect x="40.887" y="74.027" fill="#6D9D78" width="3.632" height="4.56"/>
		</g>
		<circle fill="#6D9D78" cx="34.901" cy="50.112" r="1.535"/>
		<circle fill="#6D9D78" cx="66.857" cy="50.112" r="1.535"/>
		<circle fill="#6D9D78" cx="34.901" cy="75.281" r="1.535"/>
		<circle fill="#6D9D78" cx="41.654" cy="79.884" r="1.535"/>
		<circle fill="#6D9D78" cx="66.857" cy="75.281" r="1.535"/>
	</g>
	<g>
		<rect x="30.518" y="52.873" fill="#37683A" width="35.025" height="25.628"/>
		<rect x="32.01" y="51.492" fill="#37683A" width="31.997" height="28.239"/>
		<g>
			
				<rect x="40.813" y="73.881" transform="matrix(0.7072 0.7071 -0.7071 0.7072 68.3542 -6.8007)" fill="#37683A" width="3.149" height="10.478"/>
			<rect x="37.27" y="70.525" fill="#37683A" width="1.535" height="12.274"/>
			<rect x="38.038" y="76.942" fill="#37683A" width="3.632" height="4.561"/>
		</g>
		<circle fill="#37683A" cx="32.053" cy="53.027" r="1.535"/>
		<circle fill="#37683A" cx="64.008" cy="53.027" r="1.535"/>
		<circle fill="#37683A" cx="32.053" cy="78.196" r="1.535"/>
		<circle fill="#37683A" cx="38.805" cy="82.799" r="1.535"/>
		<circle fill="#37683A" cx="64.008" cy="78.196" r="1.535"/>
	</g>
</g>
</svg>
