<?xml version="1.0" encoding="utf-8"?>
<!-- Generator: Adobe Illustrator 17.0.0, SVG Export Plug-In . SVG Version: 6.00 Build 0)  -->
<!DOCTYPE svg PUBLIC "-//W3C//DTD SVG 1.1//EN" "http://www.w3.org/Graphics/SVG/1.1/DTD/svg11.dtd">
<svg version="1.1" id="Layer_1" xmlns="http://www.w3.org/2000/svg" xmlns:xlink="http://www.w3.org/1999/xlink" x="0px" y="0px"
	 width="122px" height="122px" viewBox="0 0 122 122" enable-background="new 0 0 122 122" xml:space="preserve">
<g>
	<circle fill="#6D9D78" cx="61" cy="61" r="61"/>
</g>
<g>
	<path fill="#37683A" d="M41.207,70.861h39.587c1.511,0,2.738-1.226,2.738-2.738V43.865c0-1.513-1.226-2.738-2.738-2.738H41.207
		c-1.511,0-2.738,1.224-2.738,2.738v24.258C38.469,69.634,39.695,70.861,41.207,70.861z M43.944,46.602h34.112v18.783H43.944V46.602
		z"/>
</g>
<g>
	<path fill="#37683A" d="M85.935,73.399H36.065c-0.697,0-1.262,0.565-1.262,1.262v3.056c0,0.319,0.12,0.625,0.335,0.858l1.788,1.935
		c0.238,0.257,0.575,0.405,0.927,0.405h46.166c0.337,0,0.659-0.135,0.897-0.375l1.917-1.936c0.233-0.237,0.365-0.555,0.365-0.887
		v-3.056C87.197,73.964,86.632,73.399,85.935,73.399z M65.769,78.614c0,0.361-0.102,0.655-0.228,0.655h-9.082
		c-0.127,0-0.228-0.294-0.228-0.655v-2.923c0-0.362,0.102-0.651,0.228-0.651h9.082c0.127,0,0.228,0.289,0.228,0.651V78.614z"/>
</g>
</svg>
