<?xml version="1.0" encoding="utf-8"?>
<!-- Generator: Adobe Illustrator 17.0.0, SVG Export Plug-In . SVG Version: 6.00 Build 0)  -->
<!DOCTYPE svg PUBLIC "-//W3C//DTD SVG 1.1//EN" "http://www.w3.org/Graphics/SVG/1.1/DTD/svg11.dtd">
<svg version="1.1" id="Layer_1" xmlns="http://www.w3.org/2000/svg" xmlns:xlink="http://www.w3.org/1999/xlink" x="0px" y="0px"
	 width="800px" height="400px" viewBox="0 0 800 400" enable-background="new 0 0 800 400" xml:space="preserve">
<path fill="#EDD9BD" d="M496.321,55.56c0,0-4.504,3.598-11.168,1.546c-7.155-2.204,0.665,20.391,0.665,20.391l20.578,1.493
	L496.321,55.56z"/>
<polygon fill="#6E4930" points="411.611,62.522 424.832,62.524 447.648,79 431.975,79 "/>
<polygon fill="#6E4930" points="113.471,61.317 122.427,61.423 124.694,84 115.95,84 "/>
<path fill="#EDD9BD" d="M672.084,377.016c-4.019-8.737-12.057-4.928-12.057-4.928c-7.864-5.278-16.143,0-16.143,0l-7.317-3.951
	c-4.281,1.401-9.157,2.062-13.017-0.709c-3.152-2.263-4.213-5.239-4.349-8.669l-1.462-0.79l-22.632-1.124
	c0,0-1.007,8.172-2.531,10.561c-1.807,2.829-5.243,9.611-2.448,13.908c4.893,6.395,15.203,1.469,23.241,3.566
	c8.039,2.097,14.33,3.495,14.33,3.495c8.912,9.611,20.27,0.874,20.27,0.874c9.086,3.67,12.931-2.271,12.931-2.271
	c11.65,2.388,9.786-9.61,9.786-9.61L672.084,377.016z"/>
<path fill="#E0CAAD" d="M598.924,365.017c0,0-3.494,6.99,1.573,9.785c0,0-4.369-0.291-4.369-5.067
	C596.127,366.298,598.924,365.017,598.924,365.017z"/>
<path fill="#E0CAAD" d="M640.164,383.83l9.902-1.922l1.572-0.437c-0.581-5.592-8.624-8.462-8.624-8.462
	c-0.001-1.165,2.39-1.71,2.39-1.71c9.149,2.862,10.254,10.871,10.254,10.871l-2.213,0.553c-0.117,4.427-2.213,7.497-2.213,7.497
	l-3.262-0.973c1.173-1.877,1.714-4.533,1.944-6.082L640.164,383.83z"/>
<path fill="#E0CAAD" d="M663.339,378.376l-6.225-0.778l5.861-0.703l1.595-0.315c0,0-2.518-3.357-4.543-4.491
	c0,0,8.154-3.985,12.057,4.928l-1.049,0.466c0,0,0.874,12.347-10.135,9.495C660.9,386.977,664.605,384.698,663.339,378.376z"/>
<path fill="#6E4930" d="M608.839,360.433c-2.389-9.428-3.739-19.174-3.176-28.9c0.316-5.468,0.052-7.596,1.597-12.859
	c0.916-3.119,2.056-6.033,4.158-8.636c-4.625-1.602-8.366-7.592-12.538-10.138c-7.206-4.398-12.944-10.472-16.546-18.14
	c2.005,18.453,17.249,31.796,17.249,31.796c-10.555,7.57-2.666,33.586-2.666,33.586c-2.773-0.746-3.624-2.773-3.624-2.773
	c-2.239,6.61,2.025,8.316,2.025,8.316c-5.971-1.173-6.717,5.651-6.717,5.651c4.264-2.879,5.972,1.066,5.972,1.066
	c-2.453,7.463,1.599,12.049,1.599,12.049c-0.214-10.449,5.863-10.769,5.863-10.769c3.092,6.184,6.504,5.438,6.504,5.438
	C608.032,363.92,608.39,361.877,608.839,360.433z"/>
<path fill="#6E4930" d="M658.368,266.209c-0.174,1.06-0.217,2.116-0.219,3.205c-0.001,0.251-0.302,0.456-0.527,0.302
	c-4.117-2.832-6.572-6.894-8.921-11.171c-0.389,0.543-0.828,1.028-1.317,1.521c-0.215,0.217-0.597,0.057-0.597-0.247
	c0.001-3.373-0.051-6.841,0.77-10.139c0.375-1.507,0.808-3.131,1.62-4.47c0.718-1.184,2.082-2.839,1.908-4.325
	c-1.061-0.2-2.124-0.382-3.189-0.56c-0.299-0.05-0.34-0.509-0.084-0.639c4.363-2.217,6.836-6.599,8.555-11.074
	c-1.82,1.03-3.837,1.456-6.032,1.49c-0.236,0.004-0.386-0.225-0.337-0.443c1.331-5.981,3.632-11.661,5.411-17.51
	c1.835-6.032,3.133-12.444,3.804-18.717c0.081-0.757,0.145-1.521,0.195-2.287c-0.196-1.97-0.627-3.926-1.21-5.777
	c-0.373-1.185-0.814-2.406-1.352-3.586c0.316,3.797,0.193,7.664-0.404,11.426c-1.182,7.452-4.189,14.053-7.613,20.702
	c-0.671,1.303-1.419,2.624-1.624,4.097c-0.258,1.858-0.092,3.739-0.41,5.596c-0.647,3.781-2.12,7.295-3.622,10.802
	c-1.025,2.394-2.501,4.588-3.818,6.827c-0.488,0.829-1.14,1.791-1.709,2.802c1.12,4.444,3.52,7.254,3.52,7.254
	c-4.478,9.169,0.212,17.059,0.212,17.059c2.347-2.559,6.185-2.132,6.185-2.132c-2.345,3.412,0,8.316,0,8.316
	c2.773-2.986,6.397-3.199,6.397-3.199c0.64,2.559,3.411,5.971,3.411,5.971c0.214-1.279,2.133-4.904,2.133-4.904
	c3.214,1.009,6.053,1.231,8.463,1.049C663.914,272.232,660.178,269.873,658.368,266.209z"/>
<path fill="#6E4930" d="M667.352,120.684c0.345-2.426-0.285-5.724-0.601-7.142c-0.511-4.67-4.203-5.352-4.203-5.352
	c-4.387,3.061-8.671,19.014-4.454,19.393c3.542,0.319,6.179-1.85,7.732-7.194L667.352,120.684z"/>
<path fill="#EDD9BD" d="M659.518,112.33c0,0,5.284-0.222,3.537,6.089c-1.749,6.31-5.719,5.219-5.719,5.219L659.518,112.33z"/>
<path fill="#7B5231" d="M559.6,102.126c-13.434,0-11.195,109.713-8.316,157.053s3.945,71.969,3.945,71.969
	c8.211-0.853,11.515-5.758,11.515-5.758c1.279,1.599,2.025,4.158,2.025,4.158c5.331-5.864,8.53-40.303,8.53-40.303
	c2.026,1.279,3.412,3.838,3.412,3.838c1.919-5.331,1.599-11.515,1.599-11.515c1.919,18.552,17.273,31.986,17.273,31.986
	c-10.555,7.57-2.666,33.586-2.666,33.586c-2.773-0.746-3.624-2.773-3.624-2.773c-2.239,6.61,2.025,8.316,2.025,8.316
	c-5.971-1.173-6.717,5.651-6.717,5.651c4.264-2.879,5.972,1.066,5.972,1.066c-2.453,7.463,1.599,12.049,1.599,12.049
	c-0.214-10.449,5.863-10.769,5.863-10.769c3.092,6.184,6.504,5.438,6.504,5.438c-0.96-4.158,1.173-7.783,1.173-7.783
	c3.199,0,6.397,1.066,8.743,7.677s6.61,4.158,6.61,4.158c0.32,3.838,2.986,4.264,2.986,4.264c3.626-7.037,14.962-1.426,14.962-1.426
	c2.204-3.265,5.19-4.971,5.19-4.971c-2.666-1.173-9.276-0.96-9.276-0.96c0.427-2.239-0.107-3.305-0.107-3.305
	c-0.534,2.346-4.158,4.584-8.102,2.345c-3.945-2.239-3.518-4.371,1.385-15.46c4.904-11.088,4.051-15.14,4.051-15.14
	c1.599,0.32,3.518-3.305,3.518-3.305c1.819-9.097,3.092-27.498,1.255-32.316c2.443-2.05,5.358-1.056,5.358-1.056
	c-1.279-5.971-7.144-5.012-7.144-5.012l1.493-1.812l-3.733-0.213c-2.133-3.092-7.782-12.475-7.782-12.475
	c2.345-4.585,2.239-7.57,2.239-7.57s-1.599,5.438-4.586,3.305c-2.986-2.133-4.157-5.864-4.157-5.864
	c1.438-2.026,1.918-2.666,1.933-5.522c3.239,1.511,6.064-0.769,6.064-0.769c-4.212-0.81-1.374-5.959-0.996-8.698
	c1.728-8.292,1.955-6.336,1.955-6.336c1.706,1.919,3.838,1.279,3.838,1.279c-0.214-3.625,2.132-5.545,2.132-5.545
	c1.067,4.691,3.626,7.677,3.626,7.677c-4.478,9.17,0.212,17.059,0.212,17.059c2.347-2.559,6.185-2.132,6.185-2.132
	c-2.345,3.412,0,8.316,0,8.316c2.773-2.986,6.397-3.199,6.397-3.199c0.64,2.559,3.411,5.971,3.411,5.971
	c0.214-1.279,2.133-4.904,2.133-4.904c10.875,3.412,17.486-2.133,17.486-2.133c7.037,7.463,14.074,2.346,14.074,2.346
	c-3.838-1.919-1.707-6.61-1.707-6.61c9.596,7.464,17.7,1.492,17.7,1.492c-4.904-3.625-3.412-8.742-3.412-8.742
	c4.051,5.544,10.662,1.706,10.662,1.706c-4.478-1.066-4.904-5.118-4.904-5.118c2.771,1.919,5.971,1.493,5.971,1.493
	s38.384-58.642,37.317-62.481c-1.066-3.838,2.986-5.118,2.986-5.118c-4.692-1.066-9.81,2.986-9.81,2.986l-0.426-3.625
	c-2.133,4.051-10.449,7.677-22.391,7.89s-12.155,7.677-12.155,7.677c-1.706-2.559-3.412-2.559-3.412-2.559
	c2.559,5.331-2.773,12.581-8.103,9.17c-5.331-3.412-10.023-1.066-10.023-1.066c1.067-16.206-4.264-26.869-4.264-26.869
	c2.771,0,4.904,1.066,4.904,1.066c-0.64-8.103-6.823-13.434-6.823-13.434l7.251,2.346c-1.493-5.331-5.758-10.022-5.758-10.022
	l1.919-3.838l-8.104,0.64c-3.625-9.17-14.714-18.765-14.714-18.765c1.919-1.493,6.184-3.519,6.184-3.519
	c-4.195-2.622-11.61-5.672-14.149-6.687c0.326-0.846,0.676-1.751,0.676-1.751c1.732-5.51,14.962-47.646,16.302-54.239
	c1.433-7.058-0.602-9.601-0.602-9.601s4.173-4.073,4.129-9.051c0,0-2.852,2.572-5.889,3.231c0,0,1.651-15.566,9.507-17.513
	c0,0-4.334-2.304-8.295-0.532c0,0,3.87-6.887,4.297-15.71c0,0-3.169,10.679-8.035,13.943c0,0,2.138-8.385,2.345-10.844
	c0,0-3.158-3.641-7.118-8.737c0,0-3.617,4.404-5.501,5.844c0,0,1.855-7.141,2.323-10.033c-3.117-4.217-4.027-5.678-6.343-8.921
	c0,0-9.383,16.158-20.098,21.847c0,0-40.158,4.538-51.992,29.047l-19.032,25.25C562.479,82.854,559.749,94.368,559.6,102.126z"/>
<path fill="#EDD9BD" d="M658.387,97.068c1.501-5.73,2.553-11.981,0.722-14.045l2.253-1.848c0,0-13.099-8.342-27.543-9.225
	l-1.412-3.785l-3.51,2.887c0,0-1.488-4.427-9.232-9.343c0,0,1.503,4.083,1.015,5.872c0,0-3.768-3.479-8.276-4.887l-0.976,3.142
	c0,0-10.118-3.059-13.153-0.917c-3.031,2.142-6.748,10.828-8.563,15.546l1.462,0.4l0.652,0.178c0,0-0.676,1.624-1.376,3.814
	c-0.259,1.158-0.65,2.983-0.893,4.439c0,0,1.448-0.757,4.025-0.188c0,0-1.978,2.138-3.09,4.751c-0.006,0.136-0.009,0.296,0,0.475
	c0.565-0.281,2.19-0.915,4.612-0.352c0,0-1.22,1.894-1.984,4.532c0.928,0.587,2.175,1.097,3.846,1.439c0,0-4.329-0.539-7.81,5.153
	l2.089,1.949c0,0-5.152,3.39-4.477,11.697l6.062-5.439l-2.211,8.301l4.68-2.81c0,0-4.459,6.615-1.238,13.32l5.481-8.789
	c0,0-3.315,9.283,2.774,15.56l5.554-10.484l2.325,15.181l10.963-11.547l0.8,11.378c0,0,8.261-6.911,11.206-10.65l-0.474,9.761
	c0,0,8.765-5.928,7.863-14.839l3.194,4.033c0,0,4.282-4.876,1.562-13.923l2.295,2.072c0,0,2.551-4.766-1.662-8.541
	c0,0,1.433-0.003,3.204-0.377l-0.216-3.611c1.957-0.003,3.661,1.718,4.056,2.15c0.062-0.038,0.122-0.078,0.182-0.118
	c0.827-1.937,0.872-5.731,0.872-5.731s0.993,0.085,2.062,1.027c0.199-0.598,0.415-1.256,0.64-1.966
	c0.606-3.572,0.096-6.366,0.096-6.366C657.356,96.436,657.912,96.743,658.387,97.068z"/>
<ellipse transform="matrix(0.2638 -0.9646 0.9646 0.2638 376.1149 687.0684)" fill="#D8C4AB" cx="638.157" cy="97.141" rx="8.102" ry="6.401"/>
<ellipse transform="matrix(0.2639 -0.9646 0.9646 0.2639 378.2517 685.3938)" fill="#FFFFFF" cx="638.173" cy="94.879" rx="7.976" ry="6.303"/>
<path fill="#4F4E51" d="M638.458,89.183c-0.004,0.202-0.026,0.408-0.081,0.616c-0.297,1.084-1.244,1.769-2.114,1.531
	c-0.775-0.212-1.226-1.082-1.108-2.033c-0.675,0.515-1.221,1.309-1.486,2.277c-0.55,2.006,0.314,3.991,1.925,4.432
	c1.614,0.441,3.366-0.827,3.916-2.834C639.949,91.568,639.485,89.981,638.458,89.183z"/>
<ellipse transform="matrix(0.2639 -0.9646 0.9646 0.2639 363.0584 652.8105)" fill="#D8C4AB" cx="609.229" cy="88.541" rx="8.101" ry="6.4"/>
<ellipse transform="matrix(0.2638 -0.9646 0.9646 0.2638 365.7418 651.9237)" fill="#FFFFFF" cx="609.947" cy="86.364" rx="7.976" ry="6.302"/>
<path fill="#4F4E51" d="M611.427,81.789c-0.004,0.202-0.026,0.408-0.082,0.616c-0.296,1.084-1.242,1.769-2.113,1.531
	c-0.774-0.212-1.225-1.081-1.108-2.032c-0.675,0.515-1.221,1.309-1.486,2.277c-0.549,2.007,0.312,3.991,1.927,4.432
	c1.613,0.441,3.366-0.827,3.915-2.834C612.918,84.174,612.453,82.587,611.427,81.789z"/>
<polygon fill="#FFFFFF" points="600.359,107.108 606.915,102.786 611.102,110.509 "/>
<path fill="#392C25" d="M593.997,105.975c0,0,0.995-3.639,5.08-2.459l-1.234,0.655c0,0-1.376,2.076,6.854,4.327
	c8.231,2.252,33.176,7.399,37.949,7.308c0,0,0.198-0.039-1.133-0.962c0,0,3.404-0.186,2.991,2.681l-1.186-0.427
	c0,0-14.925-1.155-39.047-7.381c0,0-7.118-1.389-7.998-4.806L593.997,105.975z"/>
<path fill="#875C3E" d="M609.995,56.314c0,0,34.941-3.392,49.684,6.873C659.679,63.187,647.389,43.597,609.995,56.314z"/>
<path fill="#6E4930" d="M651.225,2.405c0,0-8.163,15.566-18.878,21.254c0,0,1.321-4.732-1.198-7.098c0,0-0.818,5.792-5.956,9.387
	c-13.416,2.527-36.471,2.763-44.642,29.2c0,0-1.864-2.373-1.302-7.154c0,0-2.879,5.079-3.567,9.64c0,0-1.835-1.805-1.842-3.483
	c0,0-4.587,13.365-6.625,20.816l-2.692,0.672c0.505,0.382,1.093,0.825,1.722,1.289c-1.549,0.012-5.341,0.423-7.557,3.995
	l1.833,1.148c0,0-2.523,0.934-4.523,5.182v-0.004c0,0-1.59,3.914-1.292,9.005c-0.476,0.592-1.088,1.012-2.015,1.141
	c-1.62,0.225-3.267-0.544-4.703-1.511c0,0,7.23,12.837,17.987,9.292c0,0-0.014-0.025-0.039-0.063
	c-5.263-2.069-6.901-6.6-3.001-15.494c1.086-2.478,2.46-4.06,3.976-5.018l-3.211-1.457C570.103,79.627,577.683,85,577.683,85h-0.006
	c0.803,0,1.546,0.572,2.208,0.94c-1.292-2.236-3.843-5.841-7.35-7.209l0.045-0.189c-0.003-0.004-0.004,0.004-0.006-0.001
	c1.767-4.071,3.422-9.346,4.967-13.079c0.128-0.311,0.523-0.401,0.721-0.088c1.061,1.685,1.683,3.587,2.636,5.326
	c2.708-7.562,5.119-15.771,10.529-21.891c6.307-7.137,15.082-9.398,24.247-10.18c5.109-0.436,10.386-0.669,15.273-2.361
	c4.796-1.661,9.109-4.55,12.741-8.075c5.235-5.082,9.582-11.364,12.229-18.239C654.198,7.416,652.573,4.847,651.225,2.405z"/>
<path fill="#6E4930" d="M594.817,163.298c0,0,3.24-0.968,6.071,1.885c0,0,2.269-1.379,5.019,1.394c0,0,18.976-4.675,28.637,1.851
	c0,0-0.133,9.058-3.755,12.946c-3.623,3.889-3.633,12.086-3.633,12.086s-11.459-1.827-25.475-13.076c0,0-3.253,2.712-6.244,0.25
	c0,0-4.006,0.563-5.56-3.483c0,0-13.746,1.371-25.301-2.163c0,0-1.326-7.142,1.378-11.857s6.763-9.681,7.411-15.227
	C573.366,147.903,585.471,151.203,594.817,163.298z"/>
<path fill="#EDD9BD" d="M580.142,91.205c-1.148-0.762-4.367-2.762-6.973-3.058c-1.834-0.437-3.683-0.012-4.677,2.717
	c-2.355,6.48-3.411,9.562,4.398,10.364c0.111,0.012,0.345,0.057,0.456,0.067c0.045,0.004,0.25,0.054,0.252,0.046v-0.003
	c0.753-0.032,2.293-0.02,3.231-0.355c1.515-0.541,3.018-1.64,4.053-2.509C580.228,96.058,579.609,93.557,580.142,91.205z"/>
<path fill="#392C25" d="M597.003,85.675c0,0,7.479-9.086,16.553-7.592c9.074,1.494,11.45,6.692,11.45,6.692
	s18.054-6.724,26.318,12.594c0,0,1.937-1.817,2.085-5.028l2.396,0.19c0,0,0.967-4.384-1.919-6.747l2.61-2.365
	c0,0-3.81-12.521-28.31-6.42c0,0-17.394-12.576-33.163,0.142l1.446,2.637c0,0-1.798,0.867-2.258,2.902l1.747,0.58
	C595.957,83.259,595.379,84.628,597.003,85.675z"/>
<g>
	<path fill="#D85127" d="M596.096,159.46c0,0,3.24-0.968,6.071,1.885c0,0,2.269-1.379,5.019,1.394c0,0,18.976-4.675,28.637,1.851
		c0,0-0.133,9.058-3.755,12.946c-3.623,3.889-3.633,12.086-3.633,12.086s-11.459-1.827-25.475-13.076c0,0-3.253,2.712-6.244,0.25
		c0,0-4.006,0.563-5.56-3.483c0,0-13.746,1.371-25.301-2.163c0,0-1.326-7.142,1.378-11.857s6.763-9.681,7.411-15.227
		C574.645,144.065,586.75,147.365,596.096,159.46z"/>
	<path fill="#BF4527" d="M602.961,176.546c0,0,2.327-2.529,3.138-7.002c0,0,16.432-3.543,22.645,1.199c0,0-10.87,0.827-17.874,3.589
		c0,0,9.683,6.582,14.248,14.398C625.119,188.729,613.283,185.458,602.961,176.546z"/>
	<path fill="#BF4527" d="M591.158,173.313c0,0,1.535-1.125,2.3-3.018c0.769-1.893,1.09-4.624,1.09-4.624s-7.645-6.765-15.718-10.313
		c0,0,5.5,6.281,8.343,11.217c0,0-10.914,1.949-16.185,5.824C570.988,172.398,581.521,174.458,591.158,173.313z"/>
	<path fill="#BF4527" d="M596.718,176.796c0,0,2.867-1.641,4.838-11.637c0,0,0.86,5.444-3.41,12.425
		C598.145,177.583,597.316,177.453,596.718,176.796z"/>
</g>
<path fill="#EDD9BD" d="M746.294,256.087c0.213,0.96,0.747,1.066,0.747,1.066c6.717-1.599,9.062-7.25,9.062-7.25
	c4.691,5.864,9.49,4.585,9.49,4.585c2.986-1.066,3.518-7.89,2.985-15.887c-0.27-4.048,1.237-7.002,3.247-9.376
	c-0.445-1.471-1.085-2.863-2.161-4.024c-0.238-0.257-0.005-0.672,0.34-0.585c2.51,0.631,5.558,0.391,7.169-0.424
	c0.355-0.198,0.658-0.595,0.851-0.799c3.366-3.562-1.875-11.34-3.901-15.072c-2.026-3.732-4.051-4.478-8.529-7.037
	c-4.478-2.559-8.85-6.397-12.901-6.93c-4.051-0.533-15.407,2.852-15.407,2.852c-12.209,1.786-18.712,4.825-18.712,4.825l2.345,1.919
	c-8.423,0.64-11.621,9.596-11.621,9.596c3.306,0.533,3.946,2.665,3.946,2.665c-7.251,0.64-11.409,9.809-11.409,9.809
	c2.665-0.853,5.118,0.96,5.118,0.96c-3.199,0.747-4.158,5.011-4.158,5.011c7.783,4.051,11.302-1.706,11.302-1.706
	c0,2.559-3.838,7.89-3.838,7.89s3.412-3.412,6.93-0.64s6.717,3.945,6.717,3.945c-1.599,1.386-6.61,3.412-6.61,3.412l2.986,3.092
	l-4.586,7.89c3.092,0.64,4.691,0.853,12.475-1.706s6.29-11.622,6.29-11.622c0.166,0.435,0.368,0.829,0.591,1.19
	c0.714-2.502,2.153-5.523,4.374-3.957c2.598,1.83,1.805,5.183,2.502,7.891C741.926,247.67,745.667,255.614,746.294,256.087z"/>
<path fill="#D8C4AB" d="M762.575,254.387c0.708,0.166,1.319,0.216,1.808,0.217c1.258-1.819,1.865-3.883,1.858-6.084
	C765.659,250.782,764.357,252.774,762.575,254.387z"/>
<path fill="#D8C4AB" d="M750.991,216.082c-1.989,0.96-3.985,0.088-5.68-1.105c-2.496-1.755-3.987-6.045-1.779-8.222
	c-0.908,0.063-1.72,0.381-2.123,1.207c-1.033,2.116,0.059,5.278,1.627,6.879c1.649,1.684,4.836,3.424,7.278,2.798
	c2.473-0.634,3.377-2.607,2.445-4.512C752.716,214.331,752.121,215.537,750.991,216.082z"/>
<path fill="#D8C4AB" d="M775.743,217.109c1.404,1.669,2.35,3.426,2.841,5.52c0.282-0.478,0.424-1.013,0.497-1.589
	C778.268,219.418,777.3,217.965,775.743,217.109z"/>
<path fill="#6E4930" d="M689.359,209.707c0,0-4.292,1.093-8.103,6.504c0,0-2.786-2.799-1.507-7.81c0,0-5.704,3.718-6.877,7.877
	l-3.665-0.386c0,0,1.186,1.146,1.067,3.305c0,0-1.88-2.319-5.639-3.918c0,0,2.652-2.106,6.65-1.546c0,0,4.612-7.25,12.369-9.969
	c0,0-3.039,4.532-1.679,8.29c0,0,1.892-3.172,7.489-5.011L689.359,209.707z"/>
<path fill="#8D5E3F" d="M657.712,150.591c0,0,2.022,17.734,10.121,21.204c0,0-11.01-0.308-13.969-4.638c0,0,4.374,1.811,6.586,1.236
	C657.502,162.749,656.765,154.768,657.712,150.591z"/>
<path fill="#8D5E3F" d="M626.538,219.486c0,0-5.194,15.084,1.013,20.637c0,0-9.792-3.355-11.118-8.296c0,0,3.37,2.939,5.533,3.007
	C621.053,228.645,624.405,223.195,626.538,219.486z"/>
<path fill="#8D5E3F" d="M567.246,179.631c0,0,3.104,9.678,0.813,14.268c0,0,3.678-0.574,4.721-1.84c0,0,1.69,4.486,0.074,11.362
	c0,0,4.617-6.885,2.658-16.537c0,0-1.5,1.88-3.615,2.02C571.896,188.904,569.425,183.537,567.246,179.631z"/>
<path fill="#8D5E3F" d="M565.038,223.955c0,0,4.547,33.394,28.46,40.121C593.499,264.076,564.988,267.679,565.038,223.955z"/>
<path fill="#010101" d="M747.806,204.443l-16.829-14.747c0,0-5.013-5.504-10.908-1.152c-5.568,4.11-0.321,8.872,0.963,10.303
	s13.167,11.205,13.167,11.205S740.904,203.989,747.806,204.443z"/>
<path fill="#EAF7FE" d="M743.878,201.027c-3.925-1.454-12.989,2.54-10.522,8.339c0.086,0.075,0.094,0.105,0.162,0.129
	c0.471,0.465,0.681,0.558,0.681,0.558s7.291-5.791,13.608-5.609L743.878,201.027z"/>
<path fill="#EAF7FE" d="M757.79,213.037L757.79,213.037l-0.549-0.454c0.083,0.416,0.101,0.997,0.104,1.263
	c0.001,0.048-0.003,0.095,0.001,0.144c0.711,1.429,0.445,3.152-0.472,5.107c-0.274,0.564-0.795,1.604-1.274,2.276
	c-1.233,1.731-2.404,3.067-4.406,4.534c9.937,9.338,20.681,19.545,20.81,19.51c0.244-0.067,10.427-11.995,10.427-11.995
	L757.79,213.037z"/>
<path fill="#010101" d="M782.8,233.824l-0.371-0.402c-5.684-3.252-16.218,2.207-13.219,9.257c0.036,0.087,0.037,0.169,0.024,0.245
	c0.509,0.502,1.795,1.63,2.075,1.875c0.199,0.208,0.42,0.415,0.693,0.618c6.851,5.096,15.691,4.534,15.691,4.534l4.05-3.785
	C789.714,239.115,783.817,234.566,782.8,233.824z"/>
<path fill="#332E29" d="M737.341,202.072c-2.986-1.842-6.027-3.737-8.568-6.144c-2.721-2.577-5.063-5.552-8.06-7.819
	c-0.214,0.133-0.428,0.276-0.644,0.435c-0.634,0.467-1.12,0.943-1.496,1.422c4.322,5.407,9.912,9.714,15.632,13.554
	c0.176,0.119,0.361,0.231,0.54,0.348C735.432,203.043,736.346,202.474,737.341,202.072z"/>
<path fill="#FFFFFF" d="M738.631,202.87c-0.489-0.304-0.983-0.609-1.479-0.914c-0.962,0.484-1.852,1.095-2.563,1.817
	c1.562,1.036,3.177,2.025,4.803,3.007c0.996-0.509,2.084-0.993,3.211-1.391C741.295,204.534,739.969,203.7,738.631,202.87z"/>
<path fill="#FFFFFF" d="M775.423,233.462c-5.598-4.789-11.019-9.736-16.415-14.765c-0.355-0.331-1.107-1.087-1.463-1.417
	c-0.192,0.855-0.522,1.551-1.049,2.566c1.281,1.388,2.909,3.137,4.171,4.547c2.669,2.983,5.49,5.753,8.419,8.478
	c0.827,0.769,1.651,1.559,2.478,2.351C772.76,234.375,774.039,233.791,775.423,233.462z"/>
<path fill="#332E29" d="M787.242,248.351c0.371,0.324,0.727,0.666,1.072,1.019l2.698-2.522c-4.387-3.96-8.925-7.755-13.452-11.556
	c-0.873-0.733-1.731-1.482-2.594-2.223c-1.319,0.447-2.563,1.12-3.587,1.976c2.659,2.552,5.343,5.156,8.284,7.308
	C782.277,244.266,785.083,245.914,787.242,248.351z"/>
<path fill="#010101" d="M730.568,188.01"/>
<path fill="#D8C4AB" d="M754.717,219.41c-2.371,4.113-9.596,13.061-20.151,16.42l-0.107,6.717c0,0,0.906,3.039,4.585,4.318
	c0,0-3.678,2.639-3.039,6.397c0.62,3.641,5.951,4.494,10.213,2.923l0.089-0.049c1.617-0.628,2.887-2.026,3.835-3.541
	c-1.331,1.079-2.733,2.012-4.318,2.644c-1.453-2.806-5.395-11.988,1.376-18.289c0,0-1.953-3.172,1.574-6.169
	c1.367,2.845,3.384,3.93,3.384,3.93c-3.678,9.276,3.119,16.633,3.119,16.633c0.56-0.72,0.826-1.439,0.826-1.439
	c-6.771-7.517-2.025-15.993-2.025-15.993c-3.28-0.895-4.196-4.219-4.306-4.666c0.065-0.88,0.879-2.047,2.813-4.131
	c0,0,3.692-3.678,4.831-7.345c0.242-1.288,0.82-3.691,0.128-4.936l0,0l14.559,12.156c0,0,1.862,0.191,3.292-0.228
	c1.238-0.426-9.53-9.01-19.448-16.632c-0.037-0.042-0.071-0.085-0.11-0.127c-1.242-1.359-2.619-2.376-4.082-3.076
	c-6.395-4.864-11.543-8.678-11.404-8.572l-1.362,0.364l8.571,7.526c-4.118-0.76-9.565,1.482-13.554,5.518
	c-7.574,7.661-11.195,9.036-18.792,13.914c0,0,12.315-4.958,19.991-12.475c7.677-7.517,13.594-5.598,17.113-3.678
	C752.318,207.521,759.195,211.573,754.717,219.41z"/>
<polygon fill="#7B5231" points="482.137,76.431 431.763,77.71 411.717,62.357 206.579,61.93 210.843,65.343 224.491,67.049 
	214.681,69.183 250.506,70.465 218.52,72.602 228.755,82.848 116.59,83.294 114.298,61.237 1.059,61.801 3.997,389 560.56,389 
	558.641,61.482 485.391,62.559 483.313,67.895 "/>
<g>
	<path fill="#8D5E3F" d="M173.379,367.103c-0.934-0.881-1.822-1.798-2.64-2.588l-1.781-1.764
		c-14.556-14.095-29.609-28.69-47.306-39.344c-28.062-16.893-60.252-26.194-91.381-35.18l-5.307-1.539
		c-2.055-0.595-4.11-1.198-6.165-1.8c-5.218-1.527-10.479-3.066-15.783-4.509l0.41,45.692c1.242,0.788,2.49,1.743,3.748,2.557
		C39.455,349.508,65.223,370,85.091,390h105.216C188.516,381,179.891,373.243,173.379,367.103z"/>
	<path fill="#8D5E3F" d="M361.844,249.398c-35.583-0.321-76.735,0.084-114.827,8.986l-2.115,0.492
		c-21.378,4.97-43.485,10.108-42.527,34.517c0.85,21.646,12.268,39.179,33.938,52.109c15.547,9.277,35.6,16.093,63.109,21.451
		c24.198,4.713,49.291,6.682,73.559,8.586c14.531,1.141,29.557,2.478,44.239,4.234c21.877,2.616,43.768,6.228,65.501,10.228h69.197
		c-3.615-1-7.031-2.023-10.069-2.449c-6.151-0.861-12.307-2.074-18.26-3.17c-3.216-0.592-6.54-1.244-9.82-1.805
		c-22.737-3.891-46.551-7.2-70.783-9.797l-1.404-0.156c-32.998-3.417-73.476-9.718-78.919-20.307
		c-0.942-1.834-0.871-3.729,0.211-5.628c2.756-4.835,9.282-5.971,16.192-7.171c7.589-1.319,15.436-2.683,18.947-8.941
		c2.898-5.163,4.041-10.58,5.146-15.817c1.556-7.375,3.165-15.002,9.665-21.868c12.13-12.814,31.871-11.769,49.289-10.85
		c3.042,0.161,5.915,0.313,8.692,0.389c12.212,0.334,24.545,1.388,36.471,2.408c8.35,0.714,16.985,1.453,25.49,1.935
		c1.236,0.071,2.485,0.138,3.741,0.207c7.779,0.422,15.725,0.858,23.462,1.945L559.9,277.03
		C491.328,262.089,428.5,249.998,361.844,249.398z M367.465,326.789c-12.75,10.147-36.214,10.277-51.741,10.362L314,337.16
		c-15.172-0.001-29.241-3.583-45.619-11.617c-9.09-4.457-21.558-11.523-24.889-21.38c-1.431-4.234-1.04-8.618,1.162-13.029
		c3.546-7.105,11.849-13.258,24.679-18.288c13.324-5.224,30.934-8.101,49.586-8.101c16.818,0,33.116,2.368,45.89,6.666l0.147,0.049
		l4.932,3.708c6.734,4.472,10.682,11.959,11.073,21.05C381.46,307.865,376.163,319.865,367.465,326.789z"/>
	<path fill="#8D5E3F" d="M368.781,276.735l-4.73-3.554c-12.56-4.203-28.579-6.517-45.131-6.517c-18.419,0-35.78,2.83-48.885,7.969
		c-12.374,4.851-20.335,10.691-23.663,17.358c-1.965,3.937-2.322,7.825-1.061,11.558c3.102,9.179,15.135,15.965,23.916,20.271
		c16.102,7.898,29.911,11.42,44.775,11.421l1.713-0.009c15.263-0.084,38.328-0.212,50.556-9.945
		c8.108-6.453,13.241-18.102,12.773-28.985C378.68,287.84,375.035,280.891,368.781,276.735z M340.679,308.545
		c-2.854,3.362-8.792,5.067-17.651,5.067c-5.675,0-11.261-0.738-14.32-1.371c-5.065-1.047-18.701-6.71-20.832-13.867
		c-0.795-2.669,0.009-5.223,2.388-7.589c2.934-2.918,11.43-5.098,17.068-5.098c1.416,0,2.6,0.135,3.521,0.401l9.755,1.878
		c0.813-0.108,1.67-0.163,2.551-0.163c8.443,0,17.764,4.706,19.246,13.698C342.864,304.286,342.283,306.656,340.679,308.545z"/>
	<path fill="#8D5E3F" d="M416.993,381.678c-14.643-1.751-29.649-3.008-44.161-4.147c-24.321-1.909-49.47-3.922-73.776-8.655
		c-27.733-5.401-47.982-12.313-63.725-21.707c-22.262-13.284-33.995-31.355-34.873-53.692c-1.02-25.993,21.872-31.32,44.011-36.466
		l2.112-0.495c38.299-8.951,79.583-9.36,115.282-9.037c66.7,0.601,129.512,12.661,198.027,27.584l-0.169-28.799
		c-9.826-4.731-20.9-8.361-31.029-11.675c-2.46-0.805-4.872-1.594-7.203-2.378c-31.152-10.474-64.405-17.231-96.564-23.767
		c-12.896-2.621-26.232-5.331-39.158-8.229c-64.588-14.483-122.976-26.563-183.483-27.701
		c-52.464-0.989-108.319,3.279-170.746,13.039c-3.431,0.536-6.906,1.07-10.414,1.609c-6.189,0.951-12.515,1.924-18.916,2.961
		l0.405,45.116c22.537-0.621,65.391,1.091,100.721,19.303c27.953,14.411,47.139,36.621,63.708,58.476
		c2.903,3.83,5.912,7.655,9.097,11.705c14.553,18.505,31.047,39.479,37.142,62.064l-1.853,0.5
		c-5.992-22.206-22.358-43.016-36.797-61.377c-3.191-4.057-6.204-7.889-9.117-11.732c-16.432-21.675-35.445-43.695-63.058-57.93
		c-34.968-18.025-77.486-19.701-99.824-19.089l0.37,41.224c5.495,1.486,10.941,3.079,16.341,4.659
		c2.053,0.601,4.106,1.201,6.159,1.796l5.306,1.533c31.249,9.02,63.561,18.347,91.838,35.369
		c17.885,10.767,33.018,25.42,47.651,39.59l1.78,1.724c0.812,0.785,1.695,1.776,2.622,2.65c6.803,6.414,15.828,14.293,17.566,24.293
		h279.481C453.544,387,435.261,383.862,416.993,381.678z"/>
	<path fill="#8D5E3F" d="M323.159,289.722c-0.85,0-1.671,0.056-2.441,0.166l-0.16,0.023l-10.204-1.969
		c-0.739-0.219-1.784-0.335-3.021-0.335c-5.157,0-13.144,1.983-15.715,4.539c-1.866,1.855-2.487,3.713-1.902,5.68
		c1.785,5.997,14.395,11.505,19.382,12.536c2.97,0.614,8.401,1.331,13.931,1.331c8.153,0,13.75-1.518,16.187-4.389
		c1.239-1.46,1.663-3.256,1.295-5.49C339.05,292.942,329.333,289.722,323.159,289.722z"/>
	<path fill="#8D5E3F" d="M480.198,73.439l-51.761,3.289l-16.72-13.731l-148.827-0.31c25.616,4.654,50.472,10.107,73.422,15.396
		c23.565,5.43,47.125,11.973,69.911,18.302c4.682,1.3,9.368,2.601,14.062,3.896c4.579,1.263,9.187,2.639,13.643,3.971
		c6.52,1.948,13.261,3.963,19.993,5.641c1.94,0.484,4.183,0.934,6.558,1.411c8.471,1.702,18.072,3.632,22.988,8.55l1.583,1.584
		l-2.239,0.054c-3.304,0.079-6.615,0.117-9.919,0.117c-60.467,0-120.904-12.843-177.829-26.099
		c-23.359-5.44-46.259-10.629-68.676-14.391l2.368,2.37L125.326,83.9c61.724,9.885,121.782,23.543,176.078,35.895
		c47.767,10.867,100.001,21.23,164.384,32.611c4.6,0.813,9.332,1.611,13.909,2.383c17.088,2.881,34.759,5.861,51.373,10.555
		c7.106,2.007,14.123,4.288,20.909,6.494c2.457,0.799,4.892,1.589,7.318,2.365L558.64,62.145l-76.503,0.975l-1.97,6.622
		L480.198,73.439z"/>
	<path fill="#8D5E3F" d="M6.132,330.24c-0.9-0.582-1.794-1.076-2.686-1.645L3.997,390h78.388
		C62.805,370,37.577,350.579,6.132,330.24z"/>
	<path fill="#8D5E3F" d="M36.913,73.125c13.337,1.153,27.129,2.345,40.496,3.976c13.051,1.592,26.073,3.412,39.032,5.404
		l-2.143-20.627L1.059,62.463l0.065,7.236C13.09,71.061,25.095,72.103,36.913,73.125z"/>
	<path fill="#8D5E3F" d="M532.658,288.69c-8.532-0.485-17.181-1.224-25.545-1.94c-11.899-1.018-24.203-2.07-36.359-2.403
		c-2.801-0.076-5.686-0.229-8.741-0.39c-17.005-0.898-36.274-1.917-47.795,10.253c-6.127,6.473-7.611,13.503-9.181,20.945
		c-1.134,5.378-2.308,10.94-5.35,16.36c-3.957,7.053-12.635,8.561-20.292,9.891c-6.452,1.121-12.546,2.18-14.854,6.23
		c-0.751,1.318-0.807,2.56-0.171,3.798c3.883,7.554,32.098,14.578,77.409,19.27l1.411,0.147c24.271,2.6,48.126,5.895,70.902,9.793
		c3.292,0.563,6.622,1.176,9.844,1.769c5.933,1.093,12.069,2.222,18.178,3.078c3.197,0.447,6.718,1.542,10.446,2.534
		c2.417,0.643,4.864,0.974,7.255,1.974h0.745l-0.579-98.975c-7.751-1.106-15.75-1.624-23.577-2.05
		C535.145,288.908,533.895,288.76,532.658,288.69z"/>
	<path fill="#8D5E3F" d="M480.176,119.626c-4.985-3.409-13.259-5.071-20.076-6.441c-2.398-0.482-4.661-0.936-6.644-1.431
		c-6.775-1.689-13.537-3.71-20.078-5.664c-4.447-1.329-9.045-2.703-13.604-3.96c-4.695-1.295-9.382-2.596-14.066-3.897
		c-22.764-6.323-46.304-12.86-69.828-18.28c-26.153-6.027-54.782-12.266-84.182-17.289l-45.121-0.094l4.264,3.412l13.648,1.706
		l-9.81,2.134l35.825,1.282l-31.986,2.138l5.539,5.545c23.314,3.802,47.13,9.192,71.44,14.854
		C354.599,107.403,417.498,120.726,480.176,119.626z"/>
	<path fill="#8D5E3F" d="M46.87,146.667c0.644-2.107,0.246-4.078-1.218-6.026c-5.426-7.223-23.73-12.338-44.034-15.818l0.415,46.125
		C17.323,165.766,43.853,156.539,46.87,146.667z"/>
	<path fill="#8D5E3F" d="M497.961,189.236c-21.848-2.927-42.436-7.009-64.233-11.33c-2.81-0.557-5.629-1.116-8.46-1.674
		c-32.41-6.389-65.706-10.562-97.907-14.598c-35.444-4.442-72.095-9.036-107.782-16.605c-16.956-3.597-34.209-7.409-50.893-11.096
		c-54.688-12.084-110.763-24.472-167.271-31.7L1.6,122.876c20.755,3.517,39.729,8.816,45.586,16.611
		c1.832,2.439,2.343,5.043,1.518,7.74c-3.345,10.945-30.146,20.151-46.654,25.741l0.137,15.215
		c6.308-1.02,12.542-1.979,18.643-2.916c3.507-0.539,6.98-1.072,10.409-1.609c62.538-9.778,118.493-14.05,171.079-13.062
		c60.686,1.141,119.174,13.241,183.867,27.747c12.908,2.894,26.233,5.603,39.12,8.221c32.216,6.547,65.53,13.317,96.793,23.829
		c2.328,0.783,4.734,1.57,7.189,2.373c9.901,3.239,20.701,6.775,30.42,11.361l-0.26-44.323c-15.039-5.578-33.86-7.557-48.881-9.135
		C506.017,190.191,501.72,189.74,497.961,189.236z"/>
	<path fill="#8D5E3F" d="M551.386,173.663c-6.768-2.2-13.767-4.476-20.838-6.473c-16.514-4.666-34.132-7.636-51.171-10.509
		c-4.58-0.772-9.316-1.571-13.923-2.385c-64.414-11.388-116.678-21.756-164.476-32.63c-68.223-15.521-145.552-33.113-223.801-42.659
		c-13.334-1.627-27.108-2.818-40.428-3.97c-11.757-1.016-23.697-2.052-35.607-3.404l0.257,28.663
		c56.675,7.233,112.886,19.651,167.703,31.765c16.68,3.685,33.927,7.497,50.876,11.092c35.607,7.552,72.217,12.141,107.622,16.579
		c32.233,4.04,65.564,8.217,98.039,14.619c2.831,0.558,5.651,1.117,8.462,1.674c21.766,4.316,42.326,8.392,64.115,11.311
		c3.732,0.5,8.016,0.95,12.552,1.426c14.907,1.566,33.508,3.527,48.668,9.007l-0.126-21.549
		C556.652,175.372,554.01,174.515,551.386,173.663z"/>
</g>
<polygon fill="#6E4930" points="559.068,62 550.408,62 552.43,389 561.667,389 "/>
<path fill="#EDD9BD" d="M497.867,87.093c-1.919-4.958-3.039-6.237-8.157-4.958l-5.78-9.459c-1.09-1.785-1.206-3.4-1.133-4.39
	l4.674-10.3c0,0-12.475-5.917-23.19-0.96c-10.715,4.958-7.997,0-22.55,8.316c-14.554,8.316-16.793,13.274-16.153,18.072
	c0.64,4.798,4.958,11.035,8.796,14.874c3.838,3.838,4.478,6.717,10.555,5.758c6.077-0.96,10.556-3.838,12.155-5.598l3.838,3.998
	c0,0,2.559,2.719,8.956-0.48c6.397-3.199,7.517-7.037,7.517-7.037s1.439,3.519,4.958,4.798c3.518,1.279,5.598,1.439,10.236-1.759
	C497.227,94.769,499.786,92.051,497.867,87.093z"/>
<path fill="#EDD9BD" d="M498.507,61.823c0,0-2.239,4.478,1.919,11.035c4.158,6.557,8.316,9.596,14.234,4.158
	c5.917-5.438,5.278-15.513-1.439-20.951c-6.717-5.438-13.594-2.239-16.953-0.48L498.507,61.823z"/>
<g>
	<path fill="#D8C4AB" d="M457.084,98.448L442.29,78.936c0,0-2.639-3.279,0.72-5.598c4.018-2.775,6.237-4.718,6.237-4.718
		s-3.112,1.12-7.357,3.758c-2.959,1.839-3.518,3.918-0.72,8.157c1.825,2.763,14.394,19.272,14.394,19.272L457.084,98.448z"/>
	<path fill="#D8C4AB" d="M444.05,75.418c0,0,2.719-1.999,5.598-2.479C449.647,72.939,447.648,74.778,444.05,75.418z"/>
	<path fill="#D8C4AB" d="M444.689,77.337c0,0,2.719-1.999,5.598-2.479C450.287,74.858,448.288,76.697,444.689,77.337z"/>
	<path fill="#D8C4AB" d="M463.881,101.007c0,0,2.719-1.999,5.598-2.479C469.479,98.528,467.48,100.367,463.881,101.007z"/>
	<path fill="#D8C4AB" d="M477.396,94.929l-14.634-19.192c0,0-2.639-3.279,0.72-5.598c4.018-2.775,6.237-4.718,6.237-4.718
		s-3.112,1.12-7.357,3.758c-2.959,1.839-3.518,3.918-0.72,8.157c1.825,2.763,14.754,19.392,14.754,19.392L477.396,94.929z"/>
	<path fill="#D8C4AB" d="M464.521,72.219c0,0,2.719-1.999,5.598-2.479C470.119,69.74,468.12,71.579,464.521,72.219z"/>
	<path fill="#D8C4AB" d="M465.161,74.138c0,0,2.719-1.999,5.598-2.479C470.758,71.659,468.759,73.498,465.161,74.138z"/>
	<path fill="#D8C4AB" d="M483.713,97.168c0,0,2.719-1.999,5.598-2.479C489.31,94.689,487.311,96.529,483.713,97.168z"/>
	<path fill="#D8C4AB" d="M451.087,93.33c0,0,2.719-1.999,5.598-2.479C456.684,90.851,454.685,92.69,451.087,93.33z"/>
	<path fill="#D8C4AB" d="M441.491,101.646c0,0,2.719-1.999,5.598-2.479C447.088,99.167,445.089,101.007,441.491,101.646z"/>
	<path fill="#D8C4AB" d="M428.057,81.815c0,0,2.719-1.999,5.598-2.479C433.654,79.336,431.655,81.175,428.057,81.815z"/>
	<path fill="#D8C4AB" d="M428.696,83.734c0,0,2.719-1.999,5.598-2.479C434.294,81.255,432.295,83.094,428.696,83.734z"/>
	<path fill="#D8C4AB" d="M489.71,82.135c0,0,2.759,3.439,3.998,4.278l-0.84-2.399c0,0-1.319,0.2-2.039-2.159L489.71,82.135z"/>
</g>
<path fill="#D8C4AB" d="M514.501,75.204c0,0,1.918-3.518-0.854-5.171c-2.772-1.653-5.172-4.211-7.837-1.599
	c-2.664,2.612-2.399,6.184-0.16,8.37c2.239,2.186,4.798,0.8,4.798,0.8s-2.772,0-4.051-1.652s-1.972-4.691,0.16-6.611
	c2.132-1.919,5.705,0.853,6.665,1.813S514.767,73.392,514.501,75.204z"/>
<path fill="#010101" d="M791.19,246.51l-0.399,0.335c-1.88-0.037-2.494,1.505-2.678,2.251l-0.503,0.423l3.311,3.916l7.461-1.731
	L791.19,246.51z"/>
<path fill="#8D5E3F" d="M689.123,237.946c0,0,11.931,10.59,19.443,6.992c0,0-6.861,7.752-11.932,7.079c0,0,4.009-1.983,4.902-3.954
	C695.471,246.529,691.727,241.34,689.123,237.946z"/>
<path fill="#61412C" d="M577.963,120.476c0,0-1.216,9.204,3.73,14.248c0,0,0.777-1.908,2.588-3.741c0,0,2.854,9.913,8.011,14.538
	l1.476-3.547c0,0,4.455,8.229,9.346,12.074l4.767-3.717l1.891,3.998c0,0,8.623-1.801,11.804-4.898l0.056,4.162
	c0,0,9.244-2.891,12.735-7.435l1.529,2.461c0,0,4.396-2.122,5.817-3.706c0,0-4.083,7.129-7.027,8.061l-1.417-2.596
	c0,0-8.931,7.597-12.69,7.929l-0.928-3.644c0,0-6.472,3.987-10.217,3.978l-2.293-3.338l-4.533,2.63c0,0-7.434-5.929-8.245-9.276
	l-2.053,2.759c0,0-8.251-9.829-8.912-14.187l-2.01,2.232C581.387,139.461,574.527,133.404,577.963,120.476z"/>
<g>
	<g opacity="0.15">
		<path stroke="#000000" stroke-miterlimit="10" d="M199.155,144.469c0-2.689,2.072-4.761,4.761-4.761h31.338
			c2.381,0,4.299,1.919,4.299,4.302c0,2.381-1.919,4.302-4.299,4.302h-26.651v14.671h23.196c2.381,0,4.302,1.919,4.302,4.302
			c0,2.381-1.921,4.302-4.302,4.302h-23.196v17.588c0,2.613-2.072,4.685-4.685,4.685c-2.689,0-4.761-2.072-4.761-4.685v-44.705
			H199.155z"/>
		<path stroke="#000000" stroke-miterlimit="10" d="M239.939,173.426v-0.156c0-11.597,9.216-21.198,21.66-21.198
			c12.441,0,21.583,9.448,21.583,21.045v0.153c0,11.523-9.216,21.121-21.736,21.121
			C249.081,194.394,239.939,184.946,239.939,173.426z M273.886,173.426v-0.156c0-7.142-5.146-13.056-12.441-13.056
			c-7.45,0-12.212,5.838-12.212,12.903v0.153c0,7.068,5.146,12.98,12.365,12.98C269.125,186.253,273.886,180.415,273.886,173.426z"
			/>
		<path stroke="#000000" stroke-miterlimit="10" d="M288.672,157.142c0-2.61,1.998-4.685,4.608-4.685s4.685,2.074,4.685,4.685v4.149
			c2.151-5.07,6.144-8.91,10.216-8.91c2.919,0,4.608,1.919,4.608,4.608c0,2.457-1.613,4.07-3.687,4.455
			c-6.606,1.151-11.137,6.221-11.137,15.822v11.982c0,2.536-2.072,4.608-4.685,4.608c-2.536,0-4.608-1.995-4.608-4.608V157.142z"/>
		<path stroke="#000000" stroke-miterlimit="10" d="M317.859,157.142c0-2.61,1.995-4.685,4.608-4.685
			c2.61,0,4.685,2.074,4.685,4.685v4.149c2.151-5.07,6.144-8.91,10.214-8.91c2.919,0,4.608,1.919,4.608,4.608
			c0,2.457-1.613,4.07-3.687,4.455c-6.606,1.151-11.137,6.221-11.137,15.822v11.982c0,2.536-2.074,4.608-4.685,4.608
			c-2.536,0-4.608-1.995-4.608-4.608v-32.106H317.859z"/>
		<path stroke="#000000" stroke-miterlimit="10" d="M345.638,189.401c-1-0.538-1.766-1.692-1.766-3.228
			c0-2.072,1.613-3.763,3.763-3.763c0.768,0,1.459,0.23,1.998,0.538c3.917,2.61,7.986,3.917,11.673,3.917
			c3.993,0,6.297-1.689,6.297-4.378v-0.153c0-3.149-4.302-4.225-9.063-5.682c-5.991-1.689-12.673-4.146-12.673-11.905v-0.153
			c0-7.68,6.376-12.367,14.439-12.367c4.302,0,8.831,1.23,12.75,3.304c1.306,0.691,2.227,1.919,2.227,3.531
			c0,2.151-1.689,3.763-3.84,3.763c-0.768,0-1.23-0.153-1.845-0.462c-3.302-1.689-6.682-2.763-9.522-2.763
			c-3.61,0-5.685,1.689-5.685,3.993v0.153c0,2.995,4.378,4.225,9.139,5.761c5.914,1.842,12.594,4.531,12.594,11.829v0.153
			c0,8.525-6.603,12.75-15.054,12.75C355.928,194.239,350.322,192.626,345.638,189.401z"/>
		<path stroke="#000000" stroke-miterlimit="10" d="M385.507,182.259v-21.351h-1.536c-2.227,0-3.993-1.766-3.993-3.993
			c0-2.227,1.766-3.993,3.993-3.993h1.536v-6.912c0-2.534,2.072-4.608,4.685-4.608c2.534,0,4.608,2.074,4.608,4.608v6.912h7.297
			c2.227,0,4.07,1.766,4.07,3.993c0,2.227-1.842,3.993-4.07,3.993H394.8V180.8c0,3.608,1.845,5.07,4.993,5.07
			c1.074,0,1.998-0.23,2.304-0.23c2.072,0,3.917,1.689,3.917,3.84c0,1.689-1.153,3.072-2.457,3.61
			c-1.998,0.691-3.917,1.074-6.374,1.074C390.345,194.162,385.507,191.167,385.507,182.259z"/>
	</g>
	<g>
		<g>
			<path fill="#FFFFFF" stroke="#FBF8F5" stroke-miterlimit="10" d="M199.155,142.469c0-2.689,2.072-4.761,4.761-4.761h31.338
				c2.381,0,4.299,1.919,4.299,4.302c0,2.381-1.919,4.302-4.299,4.302h-26.651v14.671h23.196c2.381,0,4.302,1.919,4.302,4.302
				c0,2.381-1.921,4.302-4.302,4.302h-23.196v17.588c0,2.613-2.072,4.685-4.685,4.685c-2.689,0-4.761-2.072-4.761-4.685v-44.705
				H199.155z"/>
			<path fill="#FFFFFF" stroke="#FBF8F5" stroke-miterlimit="10" d="M239.939,171.426v-0.156c0-11.597,9.216-21.198,21.66-21.198
				c12.441,0,21.583,9.448,21.583,21.045v0.153c0,11.523-9.216,21.121-21.736,21.121
				C249.081,192.394,239.939,182.946,239.939,171.426z M273.886,171.426v-0.156c0-7.142-5.146-13.056-12.441-13.056
				c-7.45,0-12.212,5.838-12.212,12.903v0.153c0,7.068,5.146,12.98,12.365,12.98C269.125,184.253,273.886,178.415,273.886,171.426z"
				/>
			<path fill="#FFFFFF" stroke="#FBF8F5" stroke-miterlimit="10" d="M288.672,155.142c0-2.61,1.998-4.685,4.608-4.685
				s4.685,2.074,4.685,4.685v4.149c2.151-5.07,6.144-8.91,10.216-8.91c2.919,0,4.608,1.919,4.608,4.608
				c0,2.457-1.613,4.07-3.687,4.455c-6.606,1.151-11.137,6.221-11.137,15.822v11.982c0,2.536-2.072,4.608-4.685,4.608
				c-2.536,0-4.608-1.995-4.608-4.608V155.142z"/>
			<path fill="#FFFFFF" stroke="#FBF8F5" stroke-miterlimit="10" d="M317.859,155.142c0-2.61,1.995-4.685,4.608-4.685
				c2.61,0,4.685,2.074,4.685,4.685v4.149c2.151-5.07,6.144-8.91,10.214-8.91c2.919,0,4.608,1.919,4.608,4.608
				c0,2.457-1.613,4.07-3.687,4.455c-6.606,1.151-11.137,6.221-11.137,15.822v11.982c0,2.536-2.074,4.608-4.685,4.608
				c-2.536,0-4.608-1.995-4.608-4.608v-32.106H317.859z"/>
			<path fill="#FFFFFF" stroke="#FBF8F5" stroke-miterlimit="10" d="M345.638,187.401c-1-0.538-1.766-1.692-1.766-3.228
				c0-2.072,1.613-3.763,3.763-3.763c0.768,0,1.459,0.23,1.998,0.538c3.917,2.61,7.986,3.917,11.673,3.917
				c3.993,0,6.297-1.689,6.297-4.378v-0.153c0-3.149-4.302-4.225-9.063-5.682c-5.991-1.689-12.673-4.146-12.673-11.905v-0.153
				c0-7.68,6.376-12.367,14.439-12.367c4.302,0,8.831,1.23,12.75,3.304c1.306,0.691,2.227,1.919,2.227,3.531
				c0,2.151-1.689,3.763-3.84,3.763c-0.768,0-1.23-0.153-1.845-0.462c-3.302-1.689-6.682-2.763-9.522-2.763
				c-3.61,0-5.685,1.689-5.685,3.993v0.153c0,2.995,4.378,4.225,9.139,5.761c5.914,1.842,12.594,4.531,12.594,11.829v0.153
				c0,8.525-6.603,12.75-15.054,12.75C355.928,192.239,350.322,190.626,345.638,187.401z"/>
			<path fill="#FFFFFF" stroke="#FBF8F5" stroke-miterlimit="10" d="M385.507,180.259v-21.351h-1.536
				c-2.227,0-3.993-1.766-3.993-3.993c0-2.227,1.766-3.993,3.993-3.993h1.536v-6.912c0-2.534,2.072-4.608,4.685-4.608
				c2.534,0,4.608,2.074,4.608,4.608v6.912h7.297c2.227,0,4.07,1.766,4.07,3.993c0,2.227-1.842,3.993-4.07,3.993H394.8V178.8
				c0,3.608,1.845,5.07,4.993,5.07c1.074,0,1.998-0.23,2.304-0.23c2.072,0,3.917,1.689,3.917,3.84c0,1.689-1.153,3.072-2.457,3.61
				c-1.998,0.691-3.917,1.074-6.374,1.074C390.345,192.162,385.507,189.167,385.507,180.259z"/>
		</g>
	</g>
</g>
<g>
	<g opacity="0.15">
		<polygon points="141.128,179.484 133.812,174.472 134.961,172.77 141.128,176.985 141.128,165.004 147.684,165.004 
			147.684,172.669 153.709,169.493 154.734,171.376 147.684,175.104 147.684,180.614 158.976,174.962 159.876,176.786 
			147.684,182.89 147.684,194.675 174.157,194.675 144.283,123.063 114.411,194.675 141.128,194.675 		"/>
	</g>
	<g>
		<polygon fill="#448249" points="141.128,177.484 133.812,172.472 134.961,170.77 141.128,174.985 141.128,163.004 
			147.684,163.004 147.684,170.669 153.709,167.493 154.734,169.376 147.684,173.104 147.684,178.614 158.976,172.962 
			159.876,174.786 147.684,180.89 147.684,192.675 174.157,192.675 144.283,121.063 114.411,192.675 141.128,192.675 		"/>
	</g>
</g>
</svg>
