<?xml version="1.0" encoding="utf-8"?>
<!-- Generator: Adobe Illustrator 17.0.0, SVG Export Plug-In . SVG Version: 6.00 Build 0)  -->
<!DOCTYPE svg PUBLIC "-//W3C//DTD SVG 1.1//EN" "http://www.w3.org/Graphics/SVG/1.1/DTD/svg11.dtd">
<svg version="1.1" id="Layer_1" xmlns="http://www.w3.org/2000/svg" xmlns:xlink="http://www.w3.org/1999/xlink" x="0px" y="0px"
	 width="122px" height="122px" viewBox="0 0 122 122" enable-background="new 0 0 122 122" xml:space="preserve">
<image overflow="visible" width="206" height="156" xlink:href="../../../../../../../Desktop/Screen Shot 2013-08-07 at 6.16.21 PM.png"  transform="matrix(0.9869 0 0 0.9869 -215.8333 -16.8764)">
</image>
<g>
	<g>
		<circle fill="#6D9D78" cx="61" cy="61" r="61"/>
	</g>
	<g>
		<g>
			<polygon fill="#37683A" points="43.551,76.838 48.078,68.998 52.604,76.838 			"/>
			<circle fill="#37683A" cx="52.604" cy="76.838" r="0.355"/>
			<circle fill="#37683A" cx="43.551" cy="76.838" r="0.355"/>
			<circle fill="#37683A" cx="48.078" cy="68.998" r="0.355"/>
			<rect x="43.592" y="76.482" fill="#37683A" width="9.053" height="0.711"/>
			
				<rect x="45.461" y="68.392" transform="matrix(-0.866 -0.5 0.5 -0.866 49.0386 158.976)" fill="#37683A" width="0.711" height="9.053"/>
			
				<rect x="49.99" y="68.389" transform="matrix(0.866 -0.5 0.5 0.866 -29.711 34.9379)" fill="#37683A" width="0.711" height="9.053"/>
		</g>
		<circle fill="#37683A" cx="74.205" cy="54.612" r="6.352"/>
		<g>
			<polygon fill="#37683A" points="50.528,77.279 60.811,59.468 71.094,77.279 			"/>
			<circle fill="#37683A" cx="71.094" cy="77.279" r="0.808"/>
			<circle fill="#37683A" cx="50.528" cy="77.279" r="0.808"/>
			<circle fill="#37683A" cx="60.811" cy="59.469" r="0.808"/>
			<rect x="50.619" y="76.472" fill="#37683A" width="20.566" height="1.615"/>
			
				<rect x="54.865" y="58.093" transform="matrix(-0.866 -0.5 0.5 -0.866 69.7003 155.427)" fill="#37683A" width="1.615" height="20.566"/>
			
				<rect x="65.155" y="58.085" transform="matrix(0.866 -0.5 0.5 0.866 -25.3469 42.1407)" fill="#37683A" width="1.615" height="20.566"/>
		</g>
		<path fill="#37683A" d="M84.533,43.577h-0.015c0-1.345-1.09-2.435-2.435-2.435c-0.124,0-0.244,0.019-0.363,0.037v-0.052H39.902
			v0.015c-1.345,0-2.435,1.09-2.435,2.435v35.118h0.027c0.137,1.215,1.156,2.163,2.407,2.163v0.015H81.72v-0.052
			c0.119,0.018,0.239,0.037,0.363,0.037c1.251,0,2.27-0.948,2.407-2.163h0.043V43.577z M42.368,46.027h37.265v29.945H42.368V46.027z
			"/>
	</g>
</g>
</svg>
