<?xml version="1.0" encoding="utf-8"?>
<!-- Generator: Adobe Illustrator 17.0.0, SVG Export Plug-In . SVG Version: 6.00 Build 0)  -->
<!DOCTYPE svg PUBLIC "-//W3C//DTD SVG 1.1//EN" "http://www.w3.org/Graphics/SVG/1.1/DTD/svg11.dtd">
<svg version="1.1" id="Layer_1" xmlns="http://www.w3.org/2000/svg" xmlns:xlink="http://www.w3.org/1999/xlink" x="0px" y="0px"
	 width="1704.5px" height="337.5px" viewBox="0 0 1704.5 337.5" enable-background="new 0 0 1704.5 337.5" xml:space="preserve">
<polygon fill="#6E4930" points="1278.436,-30.678 1319.988,-30.675 1391.695,-11.866 1342.437,-11.866 "/>
<polygon fill="#6E4930" points="341.43,-32.053 369.577,-31.932 376.702,-6.158 349.221,-6.158 "/>
<polygon fill="#7B5231" points="1500.088,-14.799 1341.771,-13.339 1278.769,-30.866 634.054,-31.353 647.455,-27.457 
	690.348,-25.509 659.517,-23.073 772.109,-21.61 671.582,-19.17 703.749,-7.473 351.233,-6.964 344.029,-32.145 -11.863,-31.501 
	-2.629,342.035 1746.559,342.035 1740.528,-31.865 1510.315,-30.635 1503.784,-24.544 "/>
<g>
	<path fill="#8D5E3F" d="M529.711,317.037c-2.935-1.006-5.726-2.053-8.297-2.955l-5.597-2.014
		c-45.747-16.091-93.056-32.753-148.675-44.916c-88.194-19.285-189.362-29.904-287.196-40.162l-16.679-1.757
		c-6.459-0.679-12.917-1.368-19.376-2.055c-16.399-1.743-32.934-3.5-49.603-5.148l1.289,52.163c3.903,0.9,7.826,1.99,11.779,2.919
		c101.454,23.837,182.439,47.231,244.881,70.063h330.677C577.284,332.903,550.177,324.047,529.711,317.037z"/>
	<path fill="#8D5E3F" d="M1122.026,182.663c-111.832-0.366-241.166,0.096-360.883,10.259l-6.647,0.562
		c-67.188,5.674-136.666,11.539-133.656,39.405c2.671,24.711,38.556,44.727,106.662,59.489
		c48.862,10.591,111.885,18.372,198.341,24.489c76.05,5.38,154.914,7.628,231.184,9.802c45.669,1.303,92.893,2.829,139.036,4.834
		c68.756,2.986,137.556,7.11,205.859,11.676h217.475c-11.361-1.142-22.097-2.31-31.645-2.796
		c-19.332-0.983-38.679-2.368-57.388-3.619c-10.107-0.676-20.554-1.42-30.863-2.061c-71.459-4.442-146.302-8.22-222.46-11.184
		l-4.412-0.178c-103.708-3.901-230.923-11.094-248.03-23.183c-2.96-2.094-2.737-4.257,0.663-6.425
		c8.662-5.52,29.172-6.817,50.889-8.187c23.851-1.506,48.513-3.063,59.547-10.207c9.108-5.894,12.7-12.078,16.173-18.057
		c4.89-8.419,9.947-17.127,30.376-24.965c38.123-14.629,100.165-13.436,154.907-12.387c9.561,0.184,18.59,0.357,27.318,0.444
		c38.38,0.381,77.141,1.585,114.623,2.749c26.243,0.815,53.381,1.659,80.111,2.209c3.885,0.081,7.81,0.158,11.757,0.236
		c24.448,0.482,49.421,0.98,73.737,2.22l-0.217-13.581C1528.974,197.152,1331.516,183.348,1122.026,182.663z M1139.692,271.014
		c-40.071,11.584-113.815,11.732-162.614,11.829l-5.418,0.01c-47.683-0.001-91.9-4.09-143.373-13.262
		c-28.568-5.088-67.753-13.155-78.222-24.408c-4.497-4.834-3.269-9.838,3.652-14.874c11.145-8.111,37.24-15.136,77.562-20.878
		c41.875-5.964,97.221-9.248,155.841-9.248c52.856,0,104.078,2.703,144.225,7.61l0.462,0.056l15.5,4.233
		c21.164,5.105,33.572,13.653,34.801,24.031C1183.676,249.41,1167.029,263.11,1139.692,271.014z"/>
	<path fill="#8D5E3F" d="M1143.828,213.872l-14.866-4.057c-39.474-4.798-89.819-7.44-141.84-7.44
		c-57.888,0-112.451,3.231-153.638,9.098c-38.889,5.538-63.91,12.205-74.369,19.816c-6.176,4.495-7.298,8.933-3.335,13.195
		c9.749,10.479,47.567,18.226,75.164,23.142c50.606,9.017,94.005,13.037,140.721,13.038l5.384-0.01
		c47.969-0.096,120.459-0.242,158.889-11.353c25.482-7.367,41.614-20.666,40.144-33.09
		C1174.939,226.549,1163.484,218.616,1143.828,213.872z M1055.508,250.187c-8.97,3.838-27.632,5.785-55.474,5.785
		c-17.836,0-35.391-0.843-45.005-1.565c-15.918-1.195-58.774-7.66-65.472-15.831c-2.499-3.047,0.028-5.963,7.505-8.664
		c9.221-3.331,35.923-5.82,53.642-5.82c4.45,0,8.171,0.154,11.066,0.458l30.658,2.144c2.555-0.123,5.249-0.186,8.017-0.186
		c26.535,0,55.829,5.372,60.487,15.638C1062.375,245.324,1060.549,248.03,1055.508,250.187z"/>
	<path fill="#8D5E3F" d="M1295.351,333.677c-46.021-1.999-93.182-3.434-138.791-4.734c-76.437-2.179-155.476-4.477-231.866-9.881
		c-87.16-6.166-150.8-14.057-200.277-24.781c-69.966-15.165-106.841-35.795-109.6-61.296c-3.206-29.674,68.74-35.755,138.32-41.63
		l6.638-0.565c120.368-10.219,250.117-10.686,362.313-10.317c209.627,0.686,407.035,14.454,622.367,31.49l-0.531-32.877
		c-30.881-5.401-65.685-9.545-97.519-13.328c-7.731-0.919-15.312-1.82-22.638-2.715c-97.906-11.957-202.415-19.671-303.485-27.133
		c-40.53-2.992-82.443-6.086-123.067-9.394c-202.99-16.534-386.494-30.325-576.658-31.624
		c-164.886-1.129-340.429,3.743-536.627,14.886c-10.783,0.612-21.704,1.222-32.73,1.837c-19.451,1.086-39.333,2.196-59.45,3.38
		l1.273,51.505c70.83-0.709,205.513,1.246,316.55,22.037c87.852,16.452,148.15,41.807,200.224,66.757
		c9.124,4.372,18.58,8.739,28.59,13.363c45.738,21.126,97.576,45.07,116.731,70.853l-5.824,0.571
		c-18.832-25.351-70.268-49.108-115.647-70.069c-10.029-4.632-19.498-9.006-28.653-13.393
		c-51.643-24.745-111.398-49.883-198.181-66.134C196.913,169.906,63.285,167.992-6.919,168.691l1.163,47.062
		c17.27,1.696,34.386,3.515,51.357,5.319c6.452,0.686,12.904,1.371,19.357,2.05l16.676,1.75
		c98.211,10.297,199.762,20.945,288.632,40.378c56.21,12.292,103.77,29.02,149.759,45.197l5.594,1.968
		c2.552,0.896,5.327,2.027,8.241,3.025c21.381,7.322,49.745,16.317,55.207,27.733h878.364
		C1410.225,339.752,1352.764,336.17,1295.351,333.677z"/>
	<path fill="#8D5E3F" d="M1000.446,228.698c-2.671,0-5.252,0.064-7.672,0.189l-0.503,0.026l-32.07-2.248
		c-2.323-0.25-5.607-0.382-9.495-0.382c-16.208,0-41.31,2.264-49.39,5.182c-5.865,2.118-7.816,4.239-5.978,6.484
		c5.61,6.846,45.241,13.134,60.914,14.311c9.334,0.701,26.403,1.519,43.783,1.519c25.624,0,43.214-1.733,50.873-5.011
		c3.894-1.667,5.226-3.717,4.07-6.267C1050.389,232.374,1019.85,228.698,1000.446,228.698z"/>
	<path fill="#8D5E3F" d="M1493.994-18.215l-162.677,3.755l-52.548-15.676L811.03-30.489c80.507,5.313,158.625,11.538,230.754,17.576
		c74.061,6.199,148.106,13.669,219.719,20.894c14.715,1.484,29.442,2.969,44.195,4.448c14.391,1.442,28.873,3.013,42.878,4.533
		c20.491,2.224,41.677,4.524,62.835,6.44c6.097,0.553,13.146,1.066,20.611,1.611c26.623,1.943,56.797,4.146,72.248,9.761
		l4.975,1.808l-7.037,0.062c-10.384,0.09-20.79,0.134-31.174,0.134c-190.038,0-379.982-14.662-558.888-29.795
		C838.731,0.772,766.76-5.152,696.307-9.447l7.442,2.706L378.688-6.272C572.677,5.013,761.43,20.605,932.073,34.706
		c150.124,12.406,314.287,24.237,516.633,37.229c14.457,0.928,29.329,1.839,43.714,2.72c53.705,3.289,109.242,6.691,161.457,12.05
		c22.333,2.291,44.386,4.895,65.714,7.414c7.722,0.912,15.375,1.814,22.999,2.7l-2.065-127.927l-240.437,1.113l-6.191,7.56
		L1493.994-18.215z"/>
	<path fill="#8D5E3F" d="M4.081,274.954c-2.829-0.664-5.638-1.228-8.442-1.878l1.732,70.101h246.361
		C182.195,320.345,102.907,298.173,4.081,274.954z"/>
	<path fill="#8D5E3F" d="M100.821-18.573c41.916,1.316,85.262,2.677,127.272,4.539c41.017,1.817,81.943,3.895,122.671,6.169
		l-6.735-23.548l-355.892,0.668l0.204,8.261C25.949-20.929,63.678-19.74,100.821-18.573z"/>
	<path fill="#8D5E3F" d="M1658.868,227.52c-26.815-0.554-53.997-1.397-80.284-2.215c-37.397-1.162-76.066-2.363-114.271-2.743
		c-8.803-0.087-17.87-0.261-27.472-0.445c-53.444-1.025-114.003-2.188-150.212,11.705c-19.256,7.39-23.92,15.415-28.854,23.911
		c-3.564,6.14-7.254,12.489-16.814,18.677c-12.436,8.052-39.71,9.773-63.775,11.292c-20.278,1.28-39.43,2.489-46.684,7.112
		c-2.36,1.505-2.536,2.923-0.537,4.336c12.204,8.624,100.879,16.642,243.284,21.999l4.435,0.168
		c76.28,2.968,151.252,6.73,222.834,11.18c10.346,0.643,20.812,1.343,30.938,2.02c18.646,1.248,37.931,2.537,57.13,3.514
		c10.048,0.51,21.114,1.76,32.83,2.893c7.596,0.734,15.287,1.112,22.801,2.254h2.341l-1.82-112.992
		c-24.36-1.263-49.5-1.854-74.099-2.34C1666.684,227.769,1662.755,227.6,1658.868,227.52z"/>
	<path fill="#8D5E3F" d="M1493.925,34.513c-15.667-3.892-41.671-5.789-63.096-7.353c-7.536-0.55-14.649-1.069-20.881-1.634
		c-21.293-1.928-42.545-4.235-63.102-6.466c-13.976-1.517-28.427-3.086-42.755-4.521c-14.756-1.478-29.486-2.964-44.207-4.449
		c-71.544-7.218-145.526-14.681-219.458-20.869c-82.195-6.881-172.171-14.003-264.571-19.737l-141.808-0.107l13.401,3.895
		l42.893,1.948l-30.831,2.436l112.592,1.464l-100.527,2.441l17.408,6.33c73.272,4.34,148.122,10.494,224.524,16.958
		C1099.257,20.559,1296.938,35.769,1493.925,34.513z"/>
	<path fill="#8D5E3F" d="M132.114,65.384c2.024-2.405,0.773-4.656-3.828-6.879c-17.053-8.246-74.58-14.085-138.392-18.058
		l1.304,52.657C39.252,87.188,122.632,76.654,132.114,65.384z"/>
	<path fill="#8D5E3F" d="M1549.82,113.981c-68.665-3.342-133.37-8.002-201.874-12.935c-8.831-0.636-17.691-1.274-26.588-1.911
		c-101.859-7.294-206.503-12.058-307.706-16.665c-111.395-5.071-226.583-10.316-338.742-18.957
		c-53.29-4.106-107.513-8.458-159.949-12.667C343.086,37.051,166.852,22.909-10.744,14.657l0.581,23.566
		c65.23,4.015,124.862,10.065,143.269,18.963c5.758,2.784,7.364,5.757,4.771,8.836C127.365,78.518,43.134,89.028-8.748,95.41
		l0.431,17.37c19.825-1.164,39.417-2.259,58.592-3.329c11.022-0.615,21.937-1.224,32.714-1.837
		c196.547-11.163,372.404-16.04,537.674-14.912c190.726,1.303,374.545,15.116,577.865,31.676
		c40.568,3.304,82.446,6.396,122.948,9.385c101.25,7.474,205.95,15.203,304.205,27.204c7.317,0.894,14.878,1.792,22.594,2.709
		c31.117,3.698,65.06,7.734,95.605,12.97l-0.817-50.6c-47.265-6.368-106.417-8.627-153.625-10.429
		C1575.139,115.072,1561.634,114.557,1549.82,113.981z"/>
	<path fill="#8D5E3F" d="M1717.727,96.203c-21.271-2.512-43.268-5.11-65.491-7.39c-51.901-5.327-107.271-8.717-160.822-11.997
		c-14.394-0.881-29.279-1.793-43.758-2.723c-202.443-13.001-366.7-24.837-516.922-37.251C716.32,19.123,473.288-0.96,227.364-11.858
		c-41.907-1.857-85.196-3.217-127.059-4.532c-36.95-1.16-74.476-2.343-111.907-3.886l0.808,32.722
		c178.12,8.257,354.783,22.434,527.064,36.263c52.423,4.207,106.627,8.559,159.895,12.663
		c111.907,8.622,226.966,13.86,338.239,18.927c101.303,4.612,206.057,9.381,308.121,16.689c8.897,0.637,17.76,1.275,26.595,1.911
		c68.407,4.927,133.024,9.58,201.503,12.913c11.729,0.571,25.193,1.085,39.449,1.628c46.85,1.788,105.31,4.026,152.956,10.283
		l-0.396-24.601C1734.277,98.154,1725.973,97.176,1717.727,96.203z"/>
</g>
<polygon fill="#6E4930" points="1741.87,-31.274 1714.653,-31.274 1721.008,342.035 1750.038,342.035 "/>
</svg>
